<?xml version="1.0" standalone="no"?>
<!DOCTYPE svg PUBLIC "-//W3C//DTD SVG 20010904//EN"
 "http://www.w3.org/TR/2001/REC-SVG-20010904/DTD/svg10.dtd">
<svg version="1.0" xmlns="http://www.w3.org/2000/svg"
 width="1280.000000pt" height="1280.000000pt" viewBox="0 0 1280.000000 1280.000000"
 preserveAspectRatio="xMidYMid meet">
<metadata>
Created by potrace 1.11, written by Peter Selinger 2001-2013
</metadata>
<g transform="translate(0.000000,1280.000000) scale(0.100000,-0.100000)"
fill="#000000" stroke="none">
<path d="M2418 10190 c-21 -13 -23 -38 -5 -61 12 -15 161 -119 172 -119 3 0
24 -12 47 -27 82 -51 285 -152 468 -233 201 -88 219 -96 253 -109 12 -4 56
-22 97 -39 143 -58 296 -115 480 -179 102 -36 187 -68 190 -71 3 -3 -4 -3 -15
0 -11 3 -81 22 -155 43 -74 20 -160 43 -190 51 -30 8 -66 17 -78 20 -13 3 -49
11 -80 20 -32 8 -91 22 -132 30 -72 15 -89 19 -127 28 -73 17 -275 54 -338 61
-22 3 -49 7 -61 10 -11 2 -45 7 -75 10 -30 4 -67 8 -84 11 -16 2 -85 7 -152
10 -116 6 -123 6 -123 -12 0 -13 25 -34 78 -66 189 -115 415 -217 652 -294 41
-14 84 -29 95 -33 19 -8 233 -70 265 -76 8 -2 72 -17 141 -34 69 -17 133 -31
142 -31 10 0 17 -4 17 -9 0 -5 -20 -5 -45 0 -25 5 -71 11 -103 14 -31 3 -77 8
-102 10 -245 24 -647 24 -798 -1 -53 -8 -70 -33 -41 -60 11 -10 25 -19 32 -21
7 -1 46 -14 87 -28 41 -15 82 -28 90 -30 8 -2 15 -4 15 -5 0 -1 7 -3 15 -5 8
-2 31 -9 50 -14 214 -60 485 -121 695 -156 11 -2 33 -6 49 -9 16 -3 50 -8 75
-12 25 -4 55 -8 66 -10 28 -5 73 -13 115 -19 19 -2 46 -7 60 -9 55 -9 146 -19
158 -17 6 1 12 -3 12 -9 0 -7 -10 -9 -27 -6 -117 24 -774 24 -893 1 -14 -3
-45 -7 -70 -10 -25 -3 -56 -7 -70 -9 -14 -3 -45 -7 -70 -11 -73 -12 -92 -22
-88 -47 2 -18 17 -29 62 -46 33 -13 66 -25 75 -27 9 -2 41 -10 71 -19 70 -20
235 -56 276 -60 17 -2 39 -6 50 -9 10 -4 42 -9 69 -12 28 -4 61 -8 75 -10 14
-3 52 -7 85 -10 33 -3 67 -7 75 -10 14 -3 53 -7 210 -21 30 -2 75 -6 100 -9
25 -3 95 -8 155 -11 61 -3 121 -8 135 -9 14 -2 52 -3 84 -4 33 -1 57 -4 53 -7
-3 -4 -102 -8 -219 -10 -242 -3 -405 -12 -548 -29 -165 -19 -150 -17 -269 -46
-89 -22 -119 -41 -103 -66 6 -10 139 -44 222 -58 19 -3 60 -10 90 -15 81 -13
182 -27 265 -36 28 -3 64 -7 80 -9 17 -2 68 -6 115 -10 47 -4 101 -8 120 -10
46 -4 351 -18 418 -18 82 -1 61 -13 -25 -15 -106 -1 -301 -10 -398 -18 -44 -3
-100 -8 -125 -9 -64 -5 -145 -15 -215 -26 -98 -17 -130 -66 -84 -130 l20 -29
-63 -1 c-35 0 -71 -2 -81 -4 -10 -2 -64 -6 -120 -10 -56 -3 -118 -8 -137 -10
-19 -2 -69 -7 -110 -10 -41 -4 -95 -8 -120 -10 -25 -2 -76 -7 -115 -10 -38 -3
-86 -8 -105 -10 -19 -3 -64 -7 -100 -10 -60 -5 -85 -8 -195 -20 -22 -2 -67 -7
-100 -11 -33 -3 -71 -7 -85 -9 -14 -1 -52 -5 -85 -9 -33 -3 -76 -8 -95 -11
-19 -2 -60 -7 -90 -11 -30 -4 -64 -8 -75 -9 -11 -2 -42 -6 -70 -10 -27 -3 -61
-8 -75 -10 -14 -3 -47 -7 -75 -10 -27 -4 -90 -12 -140 -20 -49 -8 -108 -17
-130 -20 -23 -3 -52 -7 -65 -10 -13 -3 -40 -7 -60 -10 -20 -3 -47 -8 -60 -10
-14 -3 -38 -7 -55 -10 -39 -6 -133 -23 -165 -30 -14 -2 -52 -10 -85 -16 -33
-5 -71 -13 -85 -15 -14 -3 -45 -10 -70 -14 -25 -5 -121 -28 -215 -50 -93 -22
-181 -43 -195 -46 -14 -2 -34 -8 -45 -11 -11 -4 -24 -8 -30 -9 -10 -2 -84 -23
-230 -66 -102 -30 -285 -93 -403 -140 -76 -30 -102 -45 -102 -58 0 -10 6 -22
12 -27 28 -22 168 -46 263 -47 60 0 174 11 197 19 7 2 29 6 48 9 19 3 46 8 60
11 14 3 39 7 55 10 17 3 41 7 55 10 14 3 39 7 55 10 17 3 41 7 55 10 14 3 39
8 55 10 17 3 55 10 85 16 30 6 64 12 75 13 11 2 34 6 50 9 17 4 41 8 55 11 14
2 99 18 190 36 91 17 174 33 185 34 31 5 92 16 200 36 219 42 321 61 350 65
17 2 55 8 85 14 85 16 107 20 225 41 61 11 120 22 131 24 12 2 37 7 55 10 19
3 75 13 124 21 50 9 106 18 125 20 19 3 58 10 85 15 28 5 66 12 85 15 19 3 46
7 60 10 14 3 39 7 55 9 51 7 119 18 140 22 25 5 86 14 127 19 32 4 94 14 132
21 10 2 44 6 75 10 31 3 63 8 71 9 8 2 47 6 85 11 39 4 72 8 75 9 3 1 39 5 80
9 41 4 86 9 100 11 128 19 494 23 545 7 l30 -10 -30 -2 c-16 -1 -38 -3 -47 -5
-9 -2 -34 -6 -55 -9 -21 -3 -83 -12 -138 -20 -55 -8 -120 -17 -145 -21 -111
-15 -198 -26 -240 -31 -25 -3 -52 -7 -60 -9 -8 -2 -40 -7 -70 -10 -30 -3 -66
-8 -80 -10 -14 -2 -50 -7 -80 -10 -30 -3 -80 -10 -110 -15 -30 -5 -82 -12
-114 -15 -33 -3 -62 -8 -65 -9 -3 -2 -35 -7 -71 -11 -107 -12 -113 -12 -160
-20 -25 -4 -62 -8 -82 -10 -21 -2 -50 -6 -65 -9 -15 -3 -50 -8 -78 -11 -27 -3
-61 -7 -75 -9 -21 -4 -149 -22 -215 -31 -91 -12 -128 -17 -180 -25 -33 -5 -82
-12 -110 -16 -27 -3 -59 -8 -70 -10 -10 -2 -37 -6 -60 -9 -22 -3 -65 -10 -95
-15 -61 -10 -122 -19 -160 -25 -42 -6 -154 -25 -180 -30 -25 -5 -62 -11 -110
-19 -39 -6 -92 -15 -125 -22 -16 -3 -39 -7 -50 -9 -11 -2 -45 -9 -75 -14 -30
-6 -65 -13 -78 -16 -13 -2 -31 -6 -40 -9 -9 -3 -28 -7 -42 -10 -168 -29 -544
-142 -584 -175 -9 -8 -16 -10 -16 -7 0 4 -13 -2 -30 -14 -45 -32 -35 -79 15
-79 11 0 83 -2 160 -4 185 -5 258 4 575 73 52 11 106 23 120 25 14 3 36 7 50
10 14 3 36 8 50 11 14 3 144 29 290 59 517 105 675 137 705 141 17 3 48 9 70
14 42 10 283 57 343 66 19 3 44 8 56 10 37 8 190 35 218 39 15 2 53 9 85 14
74 13 107 18 163 26 25 3 56 8 70 10 14 3 45 7 70 9 25 3 65 7 90 10 93 11
188 18 435 31 298 15 535 34 549 42 5 4 6 2 3 -4 -6 -9 -32 -15 -137 -29 -29
-4 -108 -17 -240 -39 -14 -2 -47 -7 -73 -9 -26 -3 -51 -7 -55 -9 -4 -3 -32 -8
-62 -11 -30 -4 -66 -8 -80 -11 -14 -2 -43 -6 -65 -10 -22 -3 -65 -10 -95 -15
-30 -5 -75 -12 -100 -15 -25 -3 -88 -13 -140 -21 -52 -8 -111 -17 -130 -20
-19 -3 -60 -9 -90 -14 -30 -5 -77 -12 -105 -15 -27 -4 -57 -8 -65 -10 -8 -2
-35 -7 -60 -10 -63 -9 -102 -15 -120 -20 -8 -2 -37 -6 -65 -10 -40 -5 -296
-46 -560 -91 -40 -6 -283 -52 -315 -58 -13 -3 -42 -8 -65 -12 -22 -3 -67 -12
-100 -19 -57 -13 -75 -17 -142 -30 -89 -18 -331 -82 -422 -112 -192 -63 -254
-105 -200 -133 44 -24 180 -40 303 -36 129 5 156 9 251 33 33 8 67 16 75 18 8
2 89 22 180 44 91 22 180 43 199 46 19 3 102 21 185 39 83 19 167 36 186 40
19 3 46 9 60 11 67 15 178 37 202 40 15 2 35 6 45 9 10 3 38 8 63 12 25 3 50
7 55 8 15 4 76 15 110 21 17 3 84 14 150 26 66 12 131 22 145 24 23 3 61 9
120 20 14 3 48 7 75 11 28 3 52 7 55 9 3 2 29 6 59 10 30 4 63 9 75 11 11 2
38 6 61 9 22 3 67 10 100 15 33 5 80 12 105 15 25 3 56 7 70 10 42 6 103 14
150 20 25 3 56 8 70 10 14 2 50 7 80 10 30 4 82 10 115 15 33 5 87 12 120 15
33 4 72 8 86 11 15 2 45 6 68 9 23 3 60 7 83 10 44 6 48 -3 4 -10 -14 -3 -38
-7 -53 -10 -16 -3 -80 -14 -143 -25 -63 -11 -126 -22 -140 -25 -50 -10 -145
-27 -165 -30 -11 -1 -58 -9 -105 -18 -47 -9 -98 -18 -115 -20 -16 -3 -79 -14
-140 -25 -60 -12 -123 -23 -140 -26 -31 -5 -344 -62 -381 -70 -12 -2 -37 -7
-55 -10 -19 -3 -45 -8 -59 -11 -14 -3 -38 -8 -55 -10 -16 -2 -75 -14 -130 -25
-55 -12 -111 -24 -125 -26 -24 -4 -151 -31 -195 -40 -11 -2 -33 -7 -48 -9 -16
-3 -66 -14 -111 -25 -45 -10 -93 -21 -106 -24 -14 -3 -43 -10 -65 -15 -22 -5
-51 -12 -65 -15 -14 -3 -52 -13 -85 -22 -33 -9 -67 -17 -75 -19 -38 -8 -261
-79 -309 -98 -30 -12 -56 -27 -58 -33 -8 -24 27 -42 84 -44 275 -9 335 -5 563
44 91 19 176 37 190 40 14 3 95 19 180 36 85 17 166 33 180 36 14 2 45 9 70
14 25 5 72 14 105 20 68 11 66 11 235 45 69 13 139 27 155 30 29 5 199 37 300
56 28 5 63 11 79 14 15 2 35 6 45 9 9 3 34 8 56 11 39 5 61 9 115 20 52 10 86
16 115 21 17 2 50 9 75 14 25 5 110 21 190 35 80 14 154 27 166 29 11 2 79 14
150 25 71 12 138 24 149 28 13 3 17 2 10 -5 -5 -6 -68 -24 -140 -42 -71 -17
-137 -33 -145 -35 -22 -6 -202 -46 -223 -50 -10 -2 -27 -7 -37 -10 -10 -3 -27
-8 -37 -10 -10 -2 -70 -15 -133 -30 -63 -14 -124 -28 -135 -30 -68 -15 -81
-18 -220 -50 -60 -14 -121 -28 -135 -30 -31 -6 -52 -10 -110 -24 -25 -5 -56
-12 -70 -15 -14 -3 -68 -15 -120 -26 -120 -26 -319 -69 -349 -75 -104 -20
-344 -123 -356 -153 -11 -30 13 -35 162 -34 185 1 265 8 373 33 47 11 96 22
109 25 14 3 27 7 30 9 7 4 303 75 341 82 14 2 41 8 60 13 19 5 69 16 110 25
41 9 84 18 95 21 11 2 34 7 50 10 39 7 155 32 230 49 33 8 76 17 95 20 19 3
98 19 175 35 77 16 154 32 170 35 17 3 66 13 110 21 44 8 95 19 114 24 19 5
37 8 39 5 5 -4 -53 -21 -129 -36 -82 -16 -82 -16 -264 -64 -93 -25 -181 -47
-194 -50 -14 -4 -97 -31 -185 -60 -89 -30 -166 -56 -172 -58 -7 -2 -18 -8 -25
-14 -8 -6 -25 -14 -39 -18 -48 -15 -159 -85 -165 -106 -12 -38 8 -44 148 -44
107 1 147 5 212 24 44 12 87 24 95 26 8 2 54 15 103 29 48 14 125 37 172 51
47 14 122 36 168 49 45 14 161 48 257 76 96 28 226 67 289 86 108 32 181 47
96 19 -40 -13 -420 -145 -545 -190 -448 -158 -720 -297 -720 -366 0 -26 11
-29 87 -31 113 -1 275 54 878 302 17 7 39 16 50 21 11 4 73 31 138 58 65 28
121 51 125 51 4 0 -85 -47 -198 -103 -333 -167 -488 -263 -591 -366 -69 -69
-91 -114 -67 -138 15 -14 40 -9 113 22 17 6 57 23 90 36 33 12 134 60 225 105
142 71 256 132 618 331 34 19 62 32 62 29 0 -3 -15 -13 -32 -22 -40 -21 -178
-111 -273 -179 -177 -126 -323 -262 -395 -369 -39 -58 -47 -80 -32 -89 16 -10
159 35 229 73 79 42 114 67 253 176 36 29 130 95 210 148 137 91 141 93 80 39
-177 -156 -315 -310 -379 -424 -48 -86 -39 -105 29 -58 14 9 70 46 125 82 83
53 171 115 220 154 59 47 221 179 225 183 3 3 32 30 65 60 76 70 56 42 -65
-90 -67 -73 -167 -230 -189 -297 -26 -76 -26 -80 -3 -92 27 -14 123 34 191 95
l55 49 -28 -45 c-60 -97 -184 -385 -195 -452 0 -5 -1 -9 -2 -10 0 -2 -2 -10
-4 -18 -1 -8 -8 -42 -16 -75 -16 -77 -15 -70 -24 -140 -12 -89 -13 -98 -19
-250 -13 -284 -17 -344 -31 -426 -19 -111 -21 -122 -46 -198 -41 -123 -80
-190 -289 -491 -33 -47 -73 -112 -89 -145 -32 -64 -51 -145 -34 -145 5 0 34
30 64 67 30 37 61 74 69 83 8 9 38 44 65 78 28 34 53 62 57 62 3 0 -23 -48
-58 -107 -61 -102 -193 -359 -198 -386 -2 -6 -9 -25 -16 -42 -25 -61 -9 -205
24 -205 17 0 346 627 346 659 0 6 5 13 10 16 9 6 -26 -99 -50 -150 -8 -18 -73
-184 -75 -195 -1 -3 -4 -12 -7 -20 -19 -48 -70 -198 -73 -211 -2 -9 -10 -37
-19 -62 -8 -25 -18 -56 -20 -69 -3 -13 -12 -52 -21 -88 -44 -182 -37 -355 19
-425 31 -38 59 -27 91 35 21 42 54 149 69 230 13 63 15 77 20 110 3 19 8 46
11 60 2 13 7 42 10 65 5 32 42 201 60 275 25 100 149 478 161 489 4 3 4 -3 1
-14 -9 -33 -45 -198 -51 -230 -2 -16 -12 -68 -20 -115 -9 -47 -18 -106 -21
-131 -3 -25 -7 -55 -10 -66 -17 -92 -22 -322 -9 -398 4 -22 8 -45 8 -50 1 -6
10 -29 20 -53 21 -46 43 -55 51 -20 42 185 81 379 90 453 2 22 9 63 14 90 5
28 12 77 16 110 3 33 8 67 10 75 6 20 18 150 17 172 0 10 2 20 6 22 4 2 7 -57
7 -132 1 -134 9 -267 19 -307 3 -11 12 -52 21 -92 24 -103 46 -101 61 7 1 8 7
44 12 80 28 170 40 376 43 708 1 206 2 214 23 227 45 28 218 119 371 194 296
146 421 200 735 318 130 49 443 150 520 168 43 10 144 47 217 79 475 210 769
558 937 1111 23 76 35 124 35 135 0 3 5 19 11 35 6 17 16 50 21 75 20 101 59
318 64 361 3 25 7 56 10 68 2 13 7 49 10 80 10 91 13 102 36 135 30 45 137
122 222 161 81 36 104 42 195 50 228 19 285 27 412 62 74 19 98 29 210 79 100
45 126 50 200 39 177 -27 314 -49 430 -72 74 -14 155 -29 180 -33 25 -5 68
-14 95 -20 28 -6 59 -14 70 -16 11 -2 30 -6 43 -9 12 -3 31 -7 43 -10 11 -2
30 -7 42 -11 12 -4 31 -8 42 -10 42 -6 387 -107 530 -156 169 -57 374 -139
514 -204 l95 -45 131 3 130 3 -45 30 c-25 16 -47 32 -50 35 -13 15 -252 156
-348 206 -289 149 -537 247 -976 384 -129 40 -490 127 -686 165 -131 26 -199
43 -207 54 -7 9 -17 21 -23 28 -5 7 -10 15 -10 18 0 7 -129 193 -177 255 -87
114 -332 370 -354 370 -3 0 -22 13 -40 30 -19 16 -37 30 -41 30 -4 0 -13 6
-20 13 -22 22 -149 93 -218 122 -220 93 -465 115 -689 61 -206 -49 -449 -216
-646 -446 -26 -30 -57 -66 -69 -80 -12 -14 -44 -54 -71 -90 -28 -36 -52 -67
-55 -70 -3 -3 -23 -30 -45 -60 -22 -30 -43 -59 -47 -65 -30 -39 -71 -95 -123
-169 -41 -59 -68 -89 -89 -96 -42 -15 -135 -12 -193 5 -88 26 -127 75 -236
296 -83 168 -108 211 -155 264 -17 19 -98 90 -147 130 -28 22 -52 43 -55 46
-15 16 -181 136 -285 206 -281 188 -651 382 -1075 563 -41 18 -93 40 -115 50
-22 10 -114 50 -205 90 -91 39 -187 82 -215 95 -27 13 -142 65 -255 115 -113
50 -223 100 -245 110 -81 37 -152 68 -225 100 -41 18 -99 44 -129 57 -30 13
-140 60 -245 104 -105 44 -200 84 -211 89 -178 83 -740 274 -895 304 -14 2
-56 11 -95 19 -146 32 -337 45 -367 27z m1742 -850 c8 -5 11 -10 5 -10 -5 0
-17 5 -25 10 -8 5 -10 10 -5 10 6 0 17 -5 25 -10z m207 -636 c-3 -3 -12 -4
-19 -1 -8 3 -5 6 6 6 11 1 17 -2 13 -5z m38 -4 c3 -6 -1 -7 -9 -4 -18 7 -21
14 -7 14 6 0 13 -4 16 -10z m335 -338 c0 -4 -9 -8 -20 -8 -11 0 -20 4 -20 8 0
4 9 8 20 8 11 0 20 -4 20 -8z m40 2 c0 -8 -19 -13 -24 -6 -3 5 1 9 9 9 8 0 15
-2 15 -3z m184 -312 c3 -5 -1 -9 -9 -9 -8 0 -12 4 -9 9 3 4 7 8 9 8 2 0 6 -4
9 -8z m43 2 c-3 -3 -12 -4 -19 -1 -8 3 -5 6 6 6 11 1 17 -2 13 -5z m208 -934
c-3 -5 -12 -10 -18 -10 -7 0 -6 4 3 10 19 12 23 12 15 0z m435 -450 c-8 -5
-19 -10 -25 -10 -5 0 -3 5 5 10 8 5 20 10 25 10 6 0 3 -5 -5 -10z m133 -2795
c-3 -9 -8 -14 -10 -11 -3 3 -2 9 2 15 9 16 15 13 8 -4z"/>
</g>
</svg>
